HIERARCHY
ROOT Hips
{
 OFFSET 0.000000 0.000000 0.000000
 CHANNELS 6 Xposition Yposition Zposition Yrotation Xrotation Zrotation
 JOINT Chest
 {
  OFFSET 0.000000 14.067100 -0.020500
  CHANNELS 3 Yrotation Xrotation Zrotation
  JOINT Chest2
  {
   OFFSET 0.000000 9.717300 0.041800
   CHANNELS 3 Yrotation Xrotation Zrotation
   JOINT Chest3
   {
    OFFSET 0.000000 9.672600 0.000000
    CHANNELS 3 Yrotation Xrotation Zrotation
    JOINT Chest4
    {
     OFFSET 0.000000 9.662700 0.000000
     CHANNELS 3 Yrotation Xrotation Zrotation
     JOINT Neck
     {
      OFFSET 0.000000 14.815200 0.000000
      CHANNELS 3 Yrotation Xrotation Zrotation
      JOINT Head
      {
       OFFSET 0.000000 9.056800 0.088400
       CHANNELS 3 Yrotation Xrotation Zrotation
       End Site
       {
        OFFSET 0.000000 17.018200 0.046700
       }
      }
     }
     JOINT RightCollar
     {
      OFFSET -3.269500 9.872600 0.000000
      CHANNELS 3 Yrotation Xrotation Zrotation
      JOINT RightShoulder
      {
       OFFSET -15.850600 0.000000 0.000000
       CHANNELS 3 Yrotation Xrotation Zrotation
       JOINT RightElbow
       {
        OFFSET 0.000000 -29.117400 0.000000
        CHANNELS 3 Yrotation Xrotation Zrotation
        JOINT RightWrist
        {
         OFFSET 0.000000 -23.969300 0.014600
         CHANNELS 3 Yrotation Xrotation Zrotation
         End Site
         {
          OFFSET 0.000000 -18.039300 0.000000
         }
        }
       }
      }
     }
     JOINT LeftCollar
     {
      OFFSET 3.269500 9.872600 0.000000
      CHANNELS 3 Yrotation Xrotation Zrotation
      JOINT LeftShoulder
      {
       OFFSET 15.850600 0.000000 0.000000
       CHANNELS 3 Yrotation Xrotation Zrotation
       JOINT LeftElbow
       {
        OFFSET 0.000000 -29.117400 0.000000
        CHANNELS 3 Yrotation Xrotation Zrotation
        JOINT LeftWrist
        {
         OFFSET 0.000000 -23.969300 0.014600
         CHANNELS 3 Yrotation Xrotation Zrotation
         End Site
         {
          OFFSET 0.000000 -18.039300 0.000000
         }
        }
       }
      }
     }
    }
   }
  }
 }
 JOINT RightHip
 {
  OFFSET -11.600400 0.101300 0.010200
  CHANNELS 3 Yrotation Xrotation Zrotation
  JOINT RightKnee
  {
   OFFSET 0.000000 -45.913300 -0.001400
   CHANNELS 3 Yrotation Xrotation Zrotation
   JOINT RightAnkle
   {
    OFFSET 0.000000 -46.966900 0.018600
    CHANNELS 3 Yrotation Xrotation Zrotation
    JOINT RightToe
    {
     OFFSET 0.000000 -10.064300 17.850900
     CHANNELS 3 Yrotation Xrotation Zrotation
     End Site
     {
      OFFSET 0.000000 -1.607600 6.976100
     }
    }
   }
  }
 }
 JOINT LeftHip
 {
  OFFSET 11.600400 0.101300 0.010200
  CHANNELS 3 Yrotation Xrotation Zrotation
  JOINT LeftKnee
  {
   OFFSET 0.000000 -45.913300 -0.001400
   CHANNELS 3 Yrotation Xrotation Zrotation
   JOINT LeftAnkle
   {
    OFFSET 0.000000 -46.966900 0.018600
    CHANNELS 3 Yrotation Xrotation Zrotation
    JOINT LeftToe
    {
     OFFSET 0.000000 -10.064300 17.850900
     CHANNELS 3 Yrotation Xrotation Zrotation
     End Site
     {
      OFFSET 0.000000 -1.607600 6.976100
     }
    }
   }
  }
 }
}
MOTION
Frames: 9
Frame Time: 0.008333
0.000000 102.636000 0.000000 0.000000 -5.767877 0.000000 0.000000 11.653817 0.000000 0.000000 -5.885947 0.000000 0.000000 -0.000000 0.000000 0.000000 -0.000000 0.000000 0.000000 12.528835 0.000000 0.000000 0.711642 0.000000 0.000000 -0.000000 0.000000 0.000000 0.000000 -90.000000 0.000000 -2.309062 0.000000 0.000000 2.309062 0.000000 0.000000 -0.000000 0.000000 0.000000 -0.000000 90.000000 0.000000 -2.309062 0.000000 0.000000 2.309062 0.000000 0.000000 8.520406 0.000000 0.000000 1.905762 0.000000 -0.000000 -4.658285 0.000000 0.000000 -0.000000 0.000000 0.000000 8.520406 0.000000 0.000000 1.905762 0.000000 -0.000000 -4.658285 0.000000 0.000000 -0.000000 0.000000
-267.422110 61.913468 -9.444371 175.035451 -28.013542 -0.803382 -1.104119 12.163136 1.815692 -0.622222 6.923712 1.424751 -0.757251 8.660285 1.766719 -0.622226 6.922955 1.423341 -0.061443 19.162131 -2.817252 0.765244 -0.167047 -5.134305 6.817050 4.773788 -5.535790 -2.023767 -19.746159 -7.937339 32.296395 -56.498554 -20.068292 8.002057 1.446916 -35.806864 0.998329 1.530552 -4.266208 3.662999 -24.424797 -2.282071 -60.788833 -36.587774 35.200498 -5.314039 12.747037 36.794511 22.777918 -53.518596 -30.938224 -108.417422 64.821108 -96.790499 6.418016 -5.549871 1.169192 0.279599 -0.731497 0.158794 -1.846949 -56.741685 9.641017 99.357662 82.761628 96.621524 -6.974986 -9.164908 1.548378 0.235325 0.583217 0.136990
-267.421746 61.914271 -9.446181 175.043705 -28.023495 -0.807412 -1.109855 12.171141 1.817880 -0.622380 6.924253 1.424467 -0.752385 8.656954 1.772238 -0.622449 6.923841 1.425027 -0.056133 19.170571 -2.811762 0.766912 -0.150867 -5.136067 6.812258 4.774853 -5.539941 -2.021722 -19.745389 -7.936779 32.301397 -56.499421 -20.074664 8.006717 1.442605 -35.799747 0.994140 1.537779 -4.274774 3.656793 -24.430153 -2.270994 -60.786407 -36.605783 35.190066 -5.301979 12.752070 36.819216 22.767237 -53.509943 -30.930431 -108.434855 64.822000 -96.805168 6.415460 -5.555238 1.165145 0.286750 -0.732776 0.162438 -1.856493 -56.731639 9.643708 99.363127 82.764070 96.626368 -6.977149 -9.164356 1.546664 0.230630 0.581527 0.136162
-267.421175 61.913714 -9.445571 175.039923 -28.022680 -0.808551 -1.104593 12.169870 1.823355 -0.623947 6.924661 1.422386 -0.747265 8.659786 1.778113 -0.626622 6.921725 1.421420 -0.054751 19.169575 -2.808805 0.763635 -0.160415 -5.127035 6.812296 4.772349 -5.540802 -2.019366 -19.744783 -7.936077 32.305697 -56.498192 -20.075729 8.009138 1.443753 -35.803929 0.994435 1.538656 -4.275969 3.655151 -24.431617 -2.268966 -60.785100 -36.610491 35.185489 -5.304113 12.753118 36.822716 22.768794 -53.512879 -30.925293 -108.434559 64.830225 -96.802215 6.410836 -5.551527 1.159146 0.284284 -0.734403 0.164765 -1.862227 -56.733349 9.654549 99.379573 82.765951 96.640407 -6.979469 -9.163633 1.546354 0.227551 0.580505 0.135697
-267.422718 61.913484 -9.446015 175.041455 -28.025658 -0.804853 -1.105686 12.172617 1.820268 -0.623286 6.925373 1.425750 -0.747138 8.660265 1.775764 -0.619283 6.926793 1.426792 -0.064005 19.162673 -2.812192 0.755018 -0.168420 -5.123953 6.803085 4.765123 -5.547429 -2.019476 -19.743704 -7.935727 32.309698 -56.502754 -20.079853 8.010467 1.449529 -35.804412 0.985211 1.533550 -4.280217 3.655041 -24.433185 -2.269675 -60.780102 -36.611494 35.182743 -5.307579 12.748854 36.821298 22.770818 -53.507449 -30.931654 -108.440932 64.835398 -96.804175 6.407914 -5.556918 1.156490 0.280457 -0.730838 0.162478 -1.849734 -56.733697 9.642510 99.401053 82.772069 96.663050 -6.981136 -9.157890 1.553022 0.234210 0.575078 0.132188
-267.422636 61.912599 -9.445238 175.035422 -28.023498 -0.806573 -1.097580 12.170644 1.825936 -0.619806 6.926378 1.427414 -0.748759 8.660071 1.775594 -0.614802 6.930575 1.426535 -0.071123 19.157169 -2.811095 0.748396 -0.174895 -5.120994 6.799331 4.755661 -5.543286 -2.013564 -19.743181 -7.940330 32.302311 -56.498846 -20.082010 8.011270 1.450311 -35.804599 0.978014 1.529289 -4.279297 3.654355 -24.434375 -2.270135 -60.776846 -36.613451 35.184166 -5.313950 12.747322 36.812169 22.770118 -53.511889 -30.923796 -108.435026 64.835870 -96.799599 6.419266 -5.557133 1.154282 0.282578 -0.729851 0.162725 -1.849482 -56.736596 9.648130 99.418190 82.777039 96.683923 -6.975653 -9.162622 1.547163 0.238181 0.578331 0.135566
-267.424343 61.912133 -9.445621 175.032801 -28.025317 -0.804301 -1.090698 12.171395 1.826666 -0.617564 6.929351 1.427162 -0.748049 8.663436 1.775197 -0.619647 6.927270 1.427691 -0.072266 19.153800 -2.809398 0.745912 -0.176310 -5.120311 6.799572 4.751915 -5.540737 -2.011647 -19.742202 -7.942138 32.302464 -56.498934 -20.088372 8.006429 1.453192 -35.806186 0.976794 1.529648 -4.275636 3.650941 -24.437229 -2.266996 -60.772814 -36.618881 35.183746 -5.317603 12.748889 36.808736 22.774836 -53.509480 -30.927674 -108.436070 64.837700 -96.799389 6.428044 -5.555675 1.148153 0.281109 -0.731009 0.164701 -1.844719 -56.735171 9.643732 99.435450 82.782556 96.703729 -6.975785 -9.165714 1.548805 0.228527 0.579117 0.131134
-267.426689 61.911664 -9.446239 175.030808 -28.027193 -0.801612 -1.087861 12.173665 1.825539 -0.617711 6.929617 1.426745 -0.748371 8.663934 1.775017 -0.618574 6.929469 1.426788 -0.074906 19.149038 -2.807089 0.740283 -0.183558 -5.115290 6.803552 4.751253 -5.543271 -2.011699 -19.739286 -7.930225 32.318830 -56.499955 -20.115581 7.998768 1.457392 -35.807122 0.970478 1.527921 -4.275089 3.655200 -24.439762 -2.261001 -60.772700 -36.625440 35.182139 -5.321559 12.752805 36.807366 22.778762 -53.506390 -30.932640 -108.438068 64.841062 -96.799551 6.429284 -5.556487 1.146702 0.278563 -0.729951 0.163978 -1.840490 -56.734604 9.637075 99.451759 82.780668 96.720304 -6.971874 -9.165818 1.550754 0.220275 0.575915 0.126814
-267.430100 61.911234 -9.447133 175.027894 -28.029085 -0.795796 -1.085543 12.176017 1.821391 -0.617509 6.929185 1.426392 -0.746070 8.663736 1.774406 -0.618721 6.929384 1.427893 -0.078860 19.145224 -2.804544 0.734697 -0.191233 -5.111273 6.800531 4.753448 -5.540488 -2.010474 -19.741512 -7.931128 32.331245 -56.502248 -20.130615 7.993404 1.459997 -35.802460 0.966884 1.528061 -4.275291 3.656491 -24.442121 -2.257587 -60.769331 -36.625316 35.177423 -5.324778 12.749668 36.806566 22.785606 -53.502274 -30.941290 -108.440203 64.843927 -96.803917 6.434910 -5.560873 1.151568 0.271850 -0.726405 0.160114 -1.833109 -56.731756 9.627367 99.448837 82.771996 96.714988 -6.974549 -9.168101 1.552567 0.228560 0.576176 0.126014
